<svg width="229" height="423" viewBox="0 0 229 423" fill="none" xmlns="http://www.w3.org/2000/svg">
<path d="M-1.54721 201.429H30.2489L48.1704 62.7306H49.6156L67.8262 201.429H99.6223L114.075 0H83.7242L79.9665 128.051H78.5212L62.0451 0H36.03L21.2882 128.051H19.8429L14.3509 0H-16L-1.54721 201.429Z" fill="#0064FF"/>
<path d="M122.171 201.429H175.357V171.79H153.967V115.39H175.357V85.751H153.967V29.6388H175.357V0H122.171V201.429Z" fill="#0064FF"/>
<path d="M-16 423H15.764L19.518 384.729H41.1752L44.9292 423H76.6931L47.528 221.571H13.1652L-16 423ZM22.4056 355.953L29.6247 282.863H31.0685L38.2876 355.953H22.4056Z" fill="#0064FF"/>
<path d="M84.808 423H116.572V345.306H121.77L132.743 423H165.951L148.047 338.4C157.576 331.494 163.64 320.271 163.64 304.157V262.72C163.64 235.384 146.026 221.571 124.369 221.571H84.808V423ZM116.572 316.531V251.786H124.369C128.989 251.786 131.876 254.951 131.876 260.131V307.898C131.876 313.365 128.989 316.531 124.369 316.531H116.572Z" fill="#0064FF"/>
<path d="M175.329 423H228.461V393.361H207.093V336.961H228.461V307.322H207.093V251.21H228.461V221.571H175.329V423Z" fill="#0064FF"/>
</svg>
