<svg width="1491" height="508" viewBox="0 0 1491 508" fill="none" xmlns="http://www.w3.org/2000/svg">
<path d="M36.3475 508H116.312L161.383 158.206H165.018L210.816 508H290.78L327.128 0H250.798L241.348 322.943H237.713L196.277 0H130.851L93.7767 322.943H90.1419L76.3298 0H0L36.3475 508Z" fill="#0064FF"/>
<path d="M347.488 508H481.247V433.251H427.453V291.011H481.247V216.263H427.453V74.7486H481.247V0H347.488V508Z" fill="#0064FF"/>
<path d="M875.579 508H955.544L964.994 411.48H1019.52L1028.97 508H1108.93L1035.51 0H949.001L875.579 508ZM972.264 338.909L990.438 154.577H994.072L1012.25 338.909H972.264Z" fill="#0064FF"/>
<path d="M1129.36 508H1209.32V312.057H1222.41L1250.03 508H1333.63L1288.56 294.64C1312.55 277.223 1327.82 248.92 1327.82 208.28V103.777C1327.82 34.8343 1283.47 0 1228.95 0H1129.36V508ZM1209.32 239.486V76.2H1228.95C1240.58 76.2 1247.85 84.1829 1247.85 97.2457V217.714C1247.85 231.503 1240.58 239.486 1228.95 239.486H1209.32Z" fill="#0064FF"/>
<path d="M1357.24 508H1491V433.251H1437.21V291.011H1491V216.263H1437.21V74.7486H1491V0H1357.24V508Z" fill="#0064FF"/>
</svg>
